{"glyphs":{"0":{"ha":1158,"x_min":0,"x_max":0,"o":"m 260 1000 b 79 819 160 1000 79 919 l 79 181 b 260 0 79 81 160 0 l 899 0 b 1079 181 999 0 1079 81 l 1079 819 b 899 1000 1079 919 999 1000 z m 879 850 l 229 304 l 229 819 b 260 850 229 836 243 850 z m 279 150 l 929 696 l 929 181 b 899 150 929 164 915 150 z "},"1":{"ha":543,"x_min":0,"x_max":0,"o":"m 1 663 l 197 663 l 313 800 l 313 0 l 463 0 l 463 1000 l 283 1000 z "},"2":{"ha":1153,"x_min":0,"x_max":0,"o":"m 260 1000 b 79 819 160 1000 79 919 l 79 761 l 229 761 l 229 819 b 260 850 229 836 243 850 l 899 850 b 929 819 915 850 929 836 l 929 592 b 899 561 929 575 915 561 l 260 561 b 79 381 160 561 79 481 l 79 0 l 1079 0 l 1079 150 l 260 150 b 229 181 243 150 229 164 l 229 381 b 260 411 229 397 243 411 l 899 411 b 1079 592 999 411 1079 492 l 1079 819 b 899 1000 1079 919 999 1000 z "},"3":{"ha":1147,"x_min":0,"x_max":0,"o":"m 1014 538 b 1032 615 1025 561 1032 588 l 1032 819 b 851 1000 1032 919 951 1000 l 254 1000 b 74 819 154 1000 74 919 l 74 764 l 224 764 l 224 819 b 254 850 224 836 238 850 l 851 850 b 882 819 868 850 882 836 l 882 615 b 851 585 882 599 868 585 l 254 585 l 254 435 l 893 435 b 924 404 910 435 924 421 l 924 181 b 893 150 924 164 910 150 l 254 150 b 224 181 238 150 224 164 l 224 222 l 74 222 l 74 181 b 254 0 74 81 154 0 l 893 0 b 1074 181 993 0 1074 81 l 1074 404 b 1014 538 1074 457 1050 506 z "},"4":{"ha":1014,"x_min":0,"x_max":0,"o":"m 819 404 l 819 1000 l 669 1000 l 8 404 l 8 254 l 669 254 l 669 0 l 819 0 l 819 254 l 967 254 l 967 404 z m 669 764 l 669 404 l 226 404 z "},"5":{"ha":1153,"x_min":0,"x_max":0,"o":"m 229 819 b 260 850 229 836 243 850 l 1079 850 l 1079 1000 l 79 1000 l 79 619 b 82 589 79 608 81 599 l 79 589 l 79 439 l 899 439 b 929 408 915 439 929 425 l 929 181 b 899 150 929 164 915 150 l 260 150 b 229 181 243 150 229 164 l 229 239 l 79 239 l 79 181 b 260 0 79 81 160 0 l 899 0 b 1079 181 999 0 1079 81 l 1079 408 b 899 589 1079 508 999 589 l 260 589 b 229 619 243 589 229 603 l 229 819 z "},"6":{"ha":1139,"x_min":0,"x_max":0,"o":"m 732 589 l 260 589 b 229 619 243 589 229 603 l 229 819 b 260 850 229 836 243 850 l 913 850 l 913 1000 b 260 1000 908 1000 903 1000 b 79 819 160 1000 79 919 l 79 181 b 260 0 79 81 160 0 l 899 0 b 1079 181 999 0 1079 81 l 1079 408 b 899 589 1079 508 999 589 z m 929 181 b 899 150 929 164 915 150 l 260 150 b 229 181 243 150 229 164 l 229 439 l 899 439 b 929 408 915 439 929 425 z "},"7":{"ha":917,"x_min":0,"x_max":0,"o":"m 18 1000 b 4 1000 14 1000 8 1000 l 4 850 l 657 850 b 688 819 674 850 688 836 l 688 0 l 838 0 l 838 819 b 657 1000 838 919 757 1000 l 18 1000 z "},"8":{"ha":1158,"x_min":0,"x_max":0,"o":"m 1079 850 b 899 1000 1064 935 988 1000 l 260 1000 b 79 819 160 1000 79 919 l 79 619 b 114 514 79 581 92 543 b 79 408 92 485 79 447 l 79 181 b 260 0 79 81 160 0 l 899 0 b 1079 181 999 0 1079 81 l 1079 408 b 1044 514 1079 447 1067 485 b 1079 619 1067 543 1079 581 z m 929 181 b 899 150 929 164 915 150 l 260 150 b 229 181 243 150 229 164 l 229 408 b 260 439 229 425 243 439 l 899 439 b 929 408 915 439 929 425 z m 929 604 b 899 574 929 588 915 574 l 260 574 b 229 604 243 574 229 588 l 229 818 b 260 849 229 835 243 849 l 899 849 b 929 818 915 849 929 835 z "},"9":{"ha":1150,"x_min":0,"x_max":0,"o":"m 418 411 l 890 411 b 921 381 907 411 921 397 l 921 181 b 890 150 921 164 907 150 l 74 150 b 251 0 88 65 163 0 l 890 0 b 1071 181 990 0 1071 81 l 1071 819 b 890 1000 1071 919 990 1000 l 251 1000 b 71 819 151 1000 71 919 l 71 592 b 251 411 71 492 151 411 z m 221 819 b 251 850 221 836 235 850 l 890 850 b 921 819 907 850 921 836 l 921 561 l 251 561 b 221 592 235 561 221 575 z "}," ":{"ha":403,"x_min":0,"x_max":0,"o":""},"Æ":{"ha":1910,"x_min":0,"x_max":0,"o":"m 1075 850 l 1842 850 l 1842 1000 l 256 1000 b 75 819 156 1000 75 919 l 75 0 l 225 0 l 225 350 l 925 350 l 925 0 l 1842 0 l 1842 150 l 1075 150 l 1075 425 l 1692 425 l 1692 575 l 1075 575 z m 925 500 l 225 500 l 225 819 b 256 850 225 836 239 850 l 894 850 b 925 819 911 850 925 836 z "},"Á":{"ha":1161,"x_min":0,"x_max":0,"o":"m 261 1000 b 81 819 161 1000 81 919 l 81 0 l 231 0 l 231 350 l 931 350 l 931 0 l 1081 0 l 1081 819 b 900 1000 1081 919 1000 1000 z m 231 500 l 231 819 b 261 850 231 836 244 850 l 900 850 b 931 819 917 850 931 836 l 931 500 z m 478 1138 l 628 1138 l 683 1363 l 533 1363 z "},"Â":{"ha":1161,"x_min":0,"x_max":0,"o":"m 261 1000 b 81 819 161 1000 81 919 l 81 0 l 231 0 l 231 350 l 931 350 l 931 0 l 1081 0 l 1081 819 b 900 1000 1081 919 1000 1000 z m 231 500 l 231 819 b 261 850 231 836 244 850 l 900 850 b 931 819 917 850 931 836 l 931 500 z m 514 1138 l 581 1243 l 646 1138 l 750 1138 l 632 1333 l 529 1333 l 411 1138 z "},"Ä":{"ha":1161,"x_min":0,"x_max":0,"o":"m 261 1000 b 81 819 161 1000 81 919 l 81 0 l 231 0 l 231 350 l 931 350 l 931 0 l 1081 0 l 1081 819 b 900 1000 1081 919 1000 1000 z m 231 500 l 231 819 b 261 850 231 836 244 850 l 900 850 b 931 819 917 850 931 836 l 931 500 z m 774 1275 l 624 1275 l 624 1125 l 774 1125 z m 538 1275 l 388 1275 l 388 1125 l 538 1125 z "},"À":{"ha":1161,"x_min":0,"x_max":0,"o":"m 261 1000 b 81 819 161 1000 81 919 l 81 0 l 231 0 l 231 350 l 931 350 l 931 0 l 1081 0 l 1081 819 b 900 1000 1081 919 1000 1000 z m 231 500 l 231 819 b 261 850 231 836 244 850 l 900 850 b 931 819 917 850 931 836 l 931 500 z m 628 1364 l 478 1364 l 533 1139 l 683 1139 z "},"Å":{"ha":1161,"x_min":0,"x_max":0,"o":"m 261 1000 b 81 819 161 1000 81 919 l 81 0 l 231 0 l 231 350 l 931 350 l 931 0 l 1081 0 l 1081 819 b 900 1000 1081 919 1000 1000 z m 231 500 l 231 819 b 261 850 231 836 244 850 l 900 850 b 931 819 917 850 931 836 l 931 500 z m 542 1363 b 467 1289 500 1363 467 1329 l 467 1214 b 542 1140 467 1174 500 1140 l 619 1140 b 694 1214 661 1140 694 1174 l 694 1289 b 619 1363 694 1329 661 1363 z m 535 1196 b 522 1210 528 1196 522 1201 l 522 1293 b 535 1307 522 1301 528 1307 l 626 1307 b 639 1293 633 1307 639 1301 l 639 1210 b 626 1196 639 1201 633 1196 z "},"Ã":{"ha":1161,"x_min":0,"x_max":0,"o":"m 261 1000 b 81 819 161 1000 81 919 l 81 0 l 231 0 l 231 350 l 931 350 l 931 0 l 1081 0 l 1081 819 b 900 1000 1081 919 1000 1000 z m 231 500 l 231 819 b 261 850 231 836 244 850 l 900 850 b 931 819 917 850 931 836 l 931 500 z m 717 1236 b 439 1331 614 1247 542 1331 b 336 1311 397 1331 363 1322 l 336 1207 b 439 1239 354 1236 408 1239 b 717 1144 544 1239 618 1144 b 825 1169 760 1144 796 1157 l 825 1272 b 717 1236 792 1250 757 1236 z "},"B":{"ha":1156,"x_min":0,"x_max":0,"o":"m 1022 538 b 1040 615 1033 561 1040 588 l 1040 819 b 860 1000 1040 919 960 1000 l 82 1000 l 82 0 l 901 0 b 1082 181 1001 0 1082 81 l 1082 404 b 1022 538 1082 457 1058 506 z m 860 850 b 890 819 876 850 890 836 l 890 615 b 860 585 890 599 876 585 l 263 585 b 232 615 246 585 232 599 l 232 819 b 263 850 232 836 246 850 z m 932 181 b 901 150 932 164 918 150 l 263 150 b 232 181 246 150 232 164 l 232 404 b 263 435 232 421 246 435 l 901 435 b 932 404 918 435 932 421 z "},"C":{"ha":1142,"x_min":0,"x_max":0,"o":"m 1075 850 l 1075 1000 l 258 1000 b 78 819 158 1000 78 919 l 78 181 b 258 0 78 81 158 0 l 1075 0 l 1075 150 l 258 150 b 228 181 242 150 228 164 l 228 819 b 258 850 228 836 242 850 z "},"":{"ha":1075,"x_min":0,"x_max":0,"o":"m 0 0 l 178 0 l 401 267 l 850 267 l 850 0 l 1000 0 l 1000 1000 l 822 1000 l 0 21 z m 850 800 l 850 417 l 528 417 z "},"Ç":{"ha":1142,"x_min":0,"x_max":0,"o":"m 1075 850 l 1075 1000 l 258 1000 b 78 819 158 1000 78 919 l 78 181 b 258 0 78 81 158 0 l 524 0 l 468 -225 l 618 -225 l 674 0 l 1075 0 l 1075 150 l 258 150 b 228 181 242 150 228 164 l 228 819 b 258 850 228 836 242 850 z "},"D":{"ha":1158,"x_min":0,"x_max":0,"o":"m 81 1000 l 81 0 l 900 0 b 1081 181 1000 0 1081 81 l 1081 819 b 900 1000 1081 919 1000 1000 z m 931 181 b 900 150 931 164 917 150 l 261 150 b 231 181 244 150 231 164 l 231 819 b 261 850 231 836 244 850 l 900 850 b 931 819 917 850 931 836 z "},"E":{"ha":1064,"x_min":0,"x_max":0,"o":"m 997 1000 l 81 1000 l 81 0 l 997 0 l 997 150 l 231 150 l 231 425 l 847 425 l 847 575 l 231 575 l 231 850 l 997 850 z "},"É":{"ha":1064,"x_min":0,"x_max":0,"o":"m 997 1000 l 81 1000 l 81 0 l 997 0 l 997 150 l 231 150 l 231 425 l 847 425 l 847 575 l 231 575 l 231 850 l 997 850 z m 429 1139 l 579 1139 l 635 1364 l 485 1364 z "},"Ê":{"ha":1064,"x_min":0,"x_max":0,"o":"m 997 1000 l 81 1000 l 81 0 l 997 0 l 997 150 l 231 150 l 231 425 l 847 425 l 847 575 l 231 575 l 231 850 l 997 850 z m 465 1138 l 532 1243 l 597 1138 l 701 1138 l 583 1333 l 481 1333 l 363 1138 z "},"Ë":{"ha":1064,"x_min":0,"x_max":0,"o":"m 997 1000 l 81 1000 l 81 0 l 997 0 l 997 150 l 231 150 l 231 425 l 847 425 l 847 575 l 231 575 l 231 850 l 997 850 z m 725 1289 l 575 1289 l 575 1139 l 725 1139 z m 489 1289 l 339 1289 l 339 1139 l 489 1139 z "},"È":{"ha":1064,"x_min":0,"x_max":0,"o":"m 997 1000 l 81 1000 l 81 0 l 997 0 l 997 150 l 231 150 l 231 425 l 847 425 l 847 575 l 231 575 l 231 850 l 997 850 z m 579 1364 l 429 1364 l 485 1139 l 635 1139 z "},"€":{"ha":1110,"x_min":0,"x_max":0,"o":"m 368 150 b 338 181 351 150 338 164 l 338 303 l 896 303 l 896 453 l 338 453 l 338 547 l 896 547 l 896 697 l 338 697 l 338 819 b 368 850 338 836 351 850 l 1046 850 l 1046 1000 l 368 1000 b 188 819 268 1000 188 919 l 188 697 l 49 697 l 49 547 l 188 547 l 188 453 l 49 453 l 49 303 l 188 303 l 188 181 b 368 0 188 81 268 0 l 1046 0 l 1046 150 z "},"F":{"ha":1004,"x_min":0,"x_max":0,"o":"m 81 1000 l 81 0 l 231 0 l 231 425 l 847 425 l 847 575 l 231 575 l 231 850 l 997 850 l 997 1000 z "},"G":{"ha":1153,"x_min":0,"x_max":0,"o":"m 1078 819 b 897 1000 1078 919 997 1000 l 258 1000 b 78 819 158 1000 78 919 l 78 181 b 258 0 78 81 158 0 l 897 0 b 1078 181 997 0 1078 81 l 1078 547 l 692 547 l 692 397 l 928 397 l 928 181 b 897 150 928 164 914 150 l 258 150 b 228 181 242 150 228 164 l 228 819 b 258 850 228 836 242 850 l 897 850 b 928 819 914 850 928 836 l 928 760 l 1078 760 z "},"H":{"ha":1182,"x_min":0,"x_max":0,"o":"m 953 1000 l 953 575 l 229 575 l 229 1000 l 79 1000 l 79 0 l 229 0 l 229 425 l 953 425 l 953 0 l 1103 0 l 1103 1000 z "},"I":{"ha":306,"x_min":0,"x_max":0,"o":"m 79 0 l 229 0 l 229 1000 l 79 1000 z "},"Í":{"ha":306,"x_min":0,"x_max":0,"o":"m 79 0 l 229 0 l 229 1000 l 79 1000 z m 50 1139 l 200 1139 l 256 1364 l 106 1364 z "},"Î":{"ha":306,"x_min":0,"x_max":0,"o":"m 79 0 l 229 0 l 229 1000 l 79 1000 z m 86 1138 l 153 1243 l 218 1138 l 322 1138 l 204 1333 l 101 1333 l -17 1138 z "},"Ï":{"ha":306,"x_min":0,"x_max":0,"o":"m 79 0 l 229 0 l 229 1000 l 79 1000 z m 346 1289 l 196 1289 l 196 1139 l 346 1139 z m 110 1289 l -40 1289 l -40 1139 l 110 1139 z "},"Ì":{"ha":306,"x_min":0,"x_max":0,"o":"m 79 0 l 229 0 l 229 1000 l 79 1000 z m 200 1364 l 50 1364 l 106 1139 l 256 1139 z "},"J":{"ha":1083,"x_min":0,"x_max":0,"o":"m 856 181 b 825 150 856 164 842 150 l 186 150 b 156 181 169 150 156 164 l 156 278 l 6 278 l 6 181 b 186 0 6 81 86 0 l 825 0 b 1006 181 925 0 1006 81 l 1006 1000 l 856 1000 z "},"K":{"ha":1107,"x_min":0,"x_max":0,"o":"m 864 1000 l 507 575 l 229 575 l 229 1000 l 79 1000 l 79 0 l 229 0 l 229 425 l 507 425 l 864 0 l 1042 0 l 1042 21 l 640 500 l 1042 979 l 1042 1000 z "},"L":{"ha":1082,"x_min":0,"x_max":0,"o":"m 79 0 l 1079 0 l 1079 150 l 229 150 l 229 1001 l 79 1001 z "},"M":{"ha":1289,"x_min":0,"x_max":0,"o":"m 644 538 l 256 1000 l 78 1000 l 78 0 l 228 0 l 228 800 l 644 304 l 1061 800 l 1061 0 l 1211 0 l 1211 1000 l 1032 1000 z "},"N":{"ha":1156,"x_min":0,"x_max":0,"o":"m 928 200 l 256 1000 l 78 1000 l 78 0 l 228 0 l 228 800 l 900 0 l 1078 0 l 1078 1000 l 928 1000 z "},"Ñ":{"ha":1156,"x_min":0,"x_max":0,"o":"m 928 200 l 256 1000 l 78 1000 l 78 0 l 228 0 l 228 800 l 900 0 l 1078 0 l 1078 1000 l 928 1000 z m 714 1236 b 436 1331 611 1247 539 1331 b 333 1311 394 1331 360 1322 l 333 1207 b 436 1239 351 1236 406 1239 b 714 1144 542 1239 615 1144 b 822 1169 757 1144 793 1157 l 822 1272 b 714 1236 789 1250 754 1236 z "},"O":{"ha":1150,"x_min":0,"x_max":0,"o":"m 256 1000 b 75 819 156 1000 75 919 l 75 181 b 256 0 75 81 156 0 l 894 0 b 1075 181 994 0 1075 81 l 1075 819 b 894 1000 1075 919 994 1000 z m 256 150 b 225 181 239 150 225 164 l 225 819 b 256 850 225 836 239 850 l 894 850 b 925 819 911 850 925 836 l 925 181 b 894 150 925 164 911 150 z "},"Œ":{"ha":1908,"x_min":0,"x_max":0,"o":"m 1074 850 l 1840 850 l 1840 1000 l 254 1000 b 74 819 154 1000 74 919 l 74 181 b 254 0 74 81 154 0 l 1840 0 l 1840 150 l 1074 150 l 1074 425 l 1690 425 l 1690 575 l 1074 575 z m 893 150 l 254 150 b 224 181 238 150 224 164 l 224 819 b 254 850 224 836 238 850 l 893 850 b 924 819 910 850 924 836 l 924 181 b 893 150 924 164 910 150 z "},"Ó":{"ha":1150,"x_min":0,"x_max":0,"o":"m 256 1000 b 75 819 156 1000 75 919 l 75 181 b 256 0 75 81 156 0 l 894 0 b 1075 181 994 0 1075 81 l 1075 819 b 894 1000 1075 919 994 1000 z m 256 150 b 225 181 239 150 225 164 l 225 819 b 256 850 225 836 239 850 l 894 850 b 925 819 911 850 925 836 l 925 181 b 894 150 925 164 911 150 z m 472 1139 l 622 1139 l 678 1364 l 528 1364 z "},"Ô":{"ha":1150,"x_min":0,"x_max":0,"o":"m 256 1000 b 75 819 156 1000 75 919 l 75 181 b 256 0 75 81 156 0 l 894 0 b 1075 181 994 0 1075 81 l 1075 819 b 894 1000 1075 919 994 1000 z m 256 150 b 225 181 239 150 225 164 l 225 819 b 256 850 225 836 239 850 l 894 850 b 925 819 911 850 925 836 l 925 181 b 894 150 925 164 911 150 z m 508 1138 l 575 1243 l 640 1138 l 744 1138 l 626 1333 l 524 1333 l 406 1138 z "},"Ö":{"ha":1150,"x_min":0,"x_max":0,"o":"m 256 1000 b 75 819 156 1000 75 919 l 75 181 b 256 0 75 81 156 0 l 894 0 b 1075 181 994 0 1075 81 l 1075 819 b 894 1000 1075 919 994 1000 z m 256 150 b 225 181 239 150 225 164 l 225 819 b 256 850 225 836 239 850 l 894 850 b 925 819 911 850 925 836 l 925 181 b 894 150 925 164 911 150 z m 768 1289 l 618 1289 l 618 1139 l 768 1139 z m 532 1289 l 382 1289 l 382 1139 l 532 1139 z "},"Ò":{"ha":1150,"x_min":0,"x_max":0,"o":"m 256 1000 b 75 819 156 1000 75 919 l 75 181 b 256 0 75 81 156 0 l 894 0 b 1075 181 994 0 1075 81 l 1075 819 b 894 1000 1075 919 994 1000 z m 256 150 b 225 181 239 150 225 164 l 225 819 b 256 850 225 836 239 850 l 894 850 b 925 819 911 850 925 836 l 925 181 b 894 150 925 164 911 150 z m 622 1364 l 472 1364 l 528 1139 l 678 1139 z "},"Õ":{"ha":1150,"x_min":0,"x_max":0,"o":"m 256 1000 b 75 819 156 1000 75 919 l 75 181 b 256 0 75 81 156 0 l 894 0 b 1075 181 994 0 1075 81 l 1075 819 b 894 1000 1075 919 994 1000 z m 256 150 b 225 181 239 150 225 164 l 225 819 b 256 850 225 836 239 850 l 894 850 b 925 819 911 850 925 836 l 925 181 b 894 150 925 164 911 150 z m 711 1236 b 433 1331 608 1247 536 1331 b 331 1311 392 1331 357 1322 l 331 1207 b 433 1239 349 1236 403 1239 b 711 1144 539 1239 613 1144 b 819 1169 754 1144 790 1157 l 819 1272 b 711 1236 786 1250 751 1236 z "},"P":{"ha":1099,"x_min":0,"x_max":0,"o":"m 78 999 l 78 0 l 228 0 l 228 360 b 258 357 238 358 247 357 l 897 357 b 1078 538 997 357 1078 439 l 1078 818 b 897 999 1078 917 997 999 z m 928 538 b 897 507 928 521 914 507 l 258 507 b 228 538 242 507 228 521 l 228 818 b 258 849 228 835 242 849 l 897 849 b 928 818 914 849 928 835 z "},"Q":{"ha":1228,"x_min":0,"x_max":0,"o":"m 1072 150 b 1075 181 1074 160 1075 169 l 1075 819 b 894 1000 1075 919 994 1000 l 256 1000 b 75 819 156 1000 75 919 l 75 181 b 256 0 75 81 156 0 l 1200 0 l 1200 150 z m 256 150 b 225 181 239 150 225 164 l 225 819 b 256 850 225 836 239 850 l 894 850 b 925 819 911 850 925 836 l 925 181 b 894 150 925 164 911 150 z "},"R":{"ha":1146,"x_min":0,"x_max":0,"o":"m 1076 818 b 896 999 1076 917 996 999 l 76 999 l 76 0 l 226 0 l 226 360 b 257 357 236 358 246 357 l 599 357 l 899 0 l 1076 0 l 1076 21 l 794 357 l 896 357 b 1076 538 996 357 1076 439 z m 257 507 b 226 538 240 507 226 521 l 226 818 b 257 849 226 835 240 849 l 896 849 b 926 818 913 849 926 835 l 926 538 b 896 507 926 521 913 507 z "},"S":{"ha":1142,"x_min":0,"x_max":0,"o":"m 1071 819 b 890 1000 1071 919 990 1000 l 251 1000 b 71 819 151 1000 71 919 l 71 606 b 251 425 71 506 151 425 l 890 425 b 921 394 907 425 921 411 l 921 181 b 890 150 921 164 907 150 l 251 150 b 221 181 235 150 221 164 l 221 239 l 71 239 l 71 181 b 251 0 71 81 151 0 l 890 0 b 1071 181 990 0 1071 81 l 1071 394 b 890 575 1071 494 990 575 l 251 575 b 221 606 235 575 221 589 l 221 819 b 251 850 221 836 235 850 l 890 850 b 921 819 907 850 921 836 l 921 761 l 1071 761 z "},"Š":{"ha":1142,"x_min":0,"x_max":0,"o":"m 1071 819 b 890 1000 1071 919 990 1000 l 251 1000 b 71 819 151 1000 71 919 l 71 606 b 251 425 71 506 151 425 l 890 425 b 921 394 907 425 921 411 l 921 181 b 890 150 921 164 907 150 l 251 150 b 221 181 235 150 221 164 l 221 239 l 71 239 l 71 181 b 251 0 71 81 151 0 l 890 0 b 1071 181 990 0 1071 81 l 1071 394 b 890 575 1071 494 990 575 l 251 575 b 221 606 235 575 221 589 l 221 819 b 251 850 221 836 235 850 l 890 850 b 921 819 907 850 921 836 l 921 761 l 1071 761 z m 401 1333 l 519 1138 l 622 1138 l 740 1333 l 636 1333 l 571 1228 l 504 1333 z "},"T":{"ha":1054,"x_min":0,"x_max":0,"o":"m 28 1000 l 28 850 l 453 850 l 453 0 l 603 0 l 603 850 l 1028 850 l 1028 1000 z "},"U":{"ha":1150,"x_min":0,"x_max":0,"o":"m 925 181 b 894 150 925 164 911 150 l 256 150 b 225 181 239 150 225 164 l 225 1000 l 75 1000 l 75 181 b 256 0 75 81 156 0 l 894 0 b 1075 181 994 0 1075 81 l 1075 1000 l 925 1000 z "},"Ú":{"ha":1150,"x_min":0,"x_max":0,"o":"m 925 181 b 894 150 925 164 911 150 l 256 150 b 225 181 239 150 225 164 l 225 1000 l 75 1000 l 75 181 b 256 0 75 81 156 0 l 894 0 b 1075 181 994 0 1075 81 l 1075 1000 l 925 1000 z m 472 1139 l 622 1139 l 678 1364 l 528 1364 z "},"Û":{"ha":1150,"x_min":0,"x_max":0,"o":"m 925 181 b 894 150 925 164 911 150 l 256 150 b 225 181 239 150 225 164 l 225 1000 l 75 1000 l 75 181 b 256 0 75 81 156 0 l 894 0 b 1075 181 994 0 1075 81 l 1075 1000 l 925 1000 z m 508 1138 l 575 1243 l 640 1138 l 744 1138 l 626 1333 l 524 1333 l 406 1138 z "},"Ü":{"ha":1150,"x_min":0,"x_max":0,"o":"m 925 181 b 894 150 925 164 911 150 l 256 150 b 225 181 239 150 225 164 l 225 1000 l 75 1000 l 75 181 b 256 0 75 81 156 0 l 894 0 b 1075 181 994 0 1075 81 l 1075 1000 l 925 1000 z m 768 1289 l 618 1289 l 618 1139 l 768 1139 z m 532 1289 l 382 1289 l 382 1139 l 532 1139 z "},"Ù":{"ha":1150,"x_min":0,"x_max":0,"o":"m 925 181 b 894 150 925 164 911 150 l 256 150 b 225 181 239 150 225 164 l 225 1000 l 75 1000 l 75 181 b 256 0 75 81 156 0 l 894 0 b 1075 181 994 0 1075 81 l 1075 1000 l 925 1000 z m 622 1364 l 472 1364 l 528 1139 l 678 1139 z "},"V":{"ha":1393,"x_min":0,"x_max":0,"o":"m 701 169 l 222 1000 l 49 1000 l 626 0 l 776 0 l 1353 1000 l 1181 1000 z "},"":{"ha":1075,"x_min":0,"x_max":0,"o":"m 75 1000 l 75 0 l 253 0 l 1075 979 l 1075 1000 l 897 1000 l 225 200 l 225 1000 z "},"W":{"ha":1638,"x_min":0,"x_max":0,"o":"m 1429 1000 l 1164 271 l 899 1000 l 739 1000 l 474 271 l 208 1000 l 49 1000 l 413 0 l 533 0 l 532 1 l 535 0 l 818 779 l 1103 0 l 1225 0 l 1589 1000 z "},"":{"ha":1596,"x_min":0,"x_max":0,"o":"m 1414 1000 l 742 200 l 742 594 l 1065 979 l 1065 1000 l 888 1000 l 215 200 l 215 1000 l 65 1000 l 65 0 l 243 0 l 592 415 l 592 0 l 769 0 l 1592 979 l 1592 1000 z "},"":{"ha":1571,"x_min":0,"x_max":0,"o":"m 0 1000 l 0 979 l 822 0 l 1000 0 l 1000 415 l 1349 0 l 1526 0 l 1526 1000 l 1376 1000 l 1376 200 l 704 1000 l 526 1000 l 526 979 l 850 594 l 850 200 l 178 1000 z "},"X":{"ha":1128,"x_min":0,"x_max":0,"o":"m 886 1000 l 564 617 l 242 1000 l 64 1000 l 64 979 l 465 500 l 64 21 l 64 0 l 242 0 l 564 383 l 886 0 l 1064 0 l 1064 21 l 661 500 l 1064 979 l 1064 1000 z "},"Y":{"ha":1119,"x_min":0,"x_max":0,"o":"m 918 1000 l 560 544 l 200 1000 l 24 1000 l 485 375 l 485 0 l 635 0 l 635 375 l 1096 1000 z "},"Ý":{"ha":1119,"x_min":0,"x_max":0,"o":"m 918 1000 l 560 544 l 200 1000 l 24 1000 l 485 375 l 485 0 l 635 0 l 635 375 l 1096 1000 z m 457 1139 l 607 1139 l 663 1364 l 513 1364 z "},"Ÿ":{"ha":1119,"x_min":0,"x_max":0,"o":"m 918 1000 l 560 544 l 200 1000 l 24 1000 l 485 375 l 485 0 l 635 0 l 635 375 l 1096 1000 z m 753 1289 l 603 1289 l 603 1139 l 753 1139 z m 517 1289 l 367 1289 l 367 1139 l 517 1139 z "},"Z":{"ha":1140,"x_min":0,"x_max":0,"o":"m 71 850 l 871 850 l 71 178 l 71 0 l 1071 0 l 1071 150 l 271 150 l 1071 822 l 1071 1000 l 71 1000 z "},"Ž":{"ha":1140,"x_min":0,"x_max":0,"o":"m 71 850 l 871 850 l 71 178 l 71 0 l 1071 0 l 1071 150 l 271 150 l 1071 822 l 1071 1000 l 71 1000 z m 400 1333 l 518 1138 l 621 1138 l 739 1333 l 635 1333 l 569 1228 l 503 1333 z "},"a":{"ha":964,"x_min":0,"x_max":0,"o":"m 711 806 l 72 806 l 72 656 l 711 656 b 742 625 728 656 742 642 l 742 478 l 72 478 l 72 181 b 253 0 72 81 153 0 l 892 0 l 892 625 b 711 806 892 725 811 806 z m 742 150 l 253 150 b 222 181 236 150 222 164 l 222 328 l 742 328 z "},"á":{"ha":1007,"x_min":0,"x_max":0,"o":"m 711 806 l 72 806 l 72 656 l 711 656 b 742 625 728 656 742 642 l 742 478 l 72 478 l 72 181 b 253 0 72 81 153 0 l 892 0 l 892 625 b 711 806 892 725 811 806 z m 742 150 l 253 150 b 222 181 236 150 222 164 l 222 328 l 742 328 z m 400 997 l 550 997 l 606 1222 l 456 1222 z "},"â":{"ha":1007,"x_min":0,"x_max":0,"o":"m 711 806 l 72 806 l 72 656 l 711 656 b 742 625 728 656 742 642 l 742 478 l 72 478 l 72 181 b 253 0 72 81 153 0 l 892 0 l 892 625 b 711 806 892 725 811 806 z m 742 150 l 253 150 b 222 181 236 150 222 164 l 222 328 l 742 328 z m 436 997 l 503 1103 l 568 997 l 672 997 l 554 1193 l 451 1193 l 333 997 z "},"´":{"ha":296,"x_min":0,"x_max":0,"o":"m 46 1149 l 196 1149 l 251 1374 l 101 1374 z "},"ä":{"ha":1007,"x_min":0,"x_max":0,"o":"m 711 806 l 72 806 l 72 656 l 711 656 b 742 625 728 656 742 642 l 742 478 l 72 478 l 72 181 b 253 0 72 81 153 0 l 892 0 l 892 625 b 711 806 892 725 811 806 z m 742 150 l 253 150 b 222 181 236 150 222 164 l 222 328 l 742 328 z m 696 1147 l 546 1147 l 546 997 l 696 997 z m 460 1147 l 310 1147 l 310 997 l 460 997 z "},"æ":{"ha":1636,"x_min":0,"x_max":0,"o":"m 1382 806 l 74 806 l 74 656 l 713 656 b 743 625 729 656 743 642 l 743 478 l 74 478 l 74 181 b 254 0 74 81 154 0 l 1563 0 l 1563 150 l 924 150 b 893 176 908 150 894 161 l 893 328 l 1563 328 l 1563 625 b 1382 806 1563 725 1482 806 z m 743 150 l 254 150 b 224 181 238 150 224 164 l 224 328 l 743 328 z m 893 478 l 893 625 b 924 656 893 642 907 656 l 1382 656 b 1413 625 1399 656 1413 642 l 1413 478 z "},"à":{"ha":1007,"x_min":0,"x_max":0,"o":"m 711 806 l 72 806 l 72 656 l 711 656 b 742 625 728 656 742 642 l 742 478 l 72 478 l 72 181 b 253 0 72 81 153 0 l 892 0 l 892 625 b 711 806 892 725 811 806 z m 742 150 l 253 150 b 222 181 236 150 222 164 l 222 328 l 742 328 z m 550 1222 l 400 1222 l 456 997 l 606 997 z "},"&":{"ha":1303,"x_min":0,"x_max":0,"o":"m 1074 251 l 1074 481 l 924 481 l 924 310 l 279 635 l 279 818 b 310 849 279 835 293 849 l 851 849 b 882 818 868 849 882 835 l 882 751 l 1032 751 l 1032 850 b 851 1000 1017 935 940 1000 l 310 1000 b 129 819 210 1000 129 919 l 129 675 b 164 569 129 636 135 592 b 74 464 104 569 74 503 l 74 181 b 254 0 74 81 154 0 l 893 0 b 1060 113 969 0 1033 46 l 1250 4 l 1250 149 z m 254 150 b 224 181 238 150 224 164 l 224 464 b 254 494 224 481 238 494 l 269 494 l 919 167 b 893 150 915 157 904 150 z "},"å":{"ha":1007,"x_min":0,"x_max":0,"o":"m 711 806 l 72 806 l 72 656 l 711 656 b 742 625 728 656 742 642 l 742 478 l 72 478 l 72 181 b 253 0 72 81 153 0 l 892 0 l 892 625 b 711 806 892 725 811 806 z m 742 150 l 253 150 b 222 181 236 150 222 164 l 222 328 l 742 328 z m 464 1219 b 389 1146 422 1219 389 1186 l 389 1071 b 464 997 389 1031 422 997 l 542 997 b 617 1071 583 997 617 1031 l 617 1146 b 542 1219 617 1186 583 1219 z m 457 1053 b 444 1067 450 1053 444 1058 l 444 1150 b 457 1164 444 1158 450 1164 l 549 1164 b 561 1150 556 1164 561 1158 l 561 1067 b 549 1053 561 1058 556 1053 z "},"~":{"ha":561,"x_min":0,"x_max":0,"o":"m 414 414 b 136 508 311 425 239 508 b 33 489 94 508 60 500 l 33 385 b 136 417 51 414 106 417 b 414 322 242 417 315 322 b 522 347 457 322 493 335 l 522 450 b 414 414 489 428 454 414 z "},"*":{"ha":682,"x_min":0,"x_max":0,"o":"m 600 865 l 415 804 l 415 999 l 265 999 l 265 804 l 81 865 l 35 722 l 219 663 l 106 504 l 226 417 l 340 574 l 456 417 l 576 504 l 463 663 l 647 722 z "},"@":{"ha":1154,"x_min":0,"x_max":0,"o":"m 517 736 b 336 556 417 736 336 656 l 336 444 b 517 264 336 344 417 264 l 1079 264 l 1079 819 b 899 1000 1079 919 999 1000 l 260 1000 b 79 819 160 1000 79 919 l 79 181 b 260 0 79 81 160 0 l 1079 0 b 1079 150 1079 74 1079 82 l 260 150 b 229 181 243 150 229 164 l 229 819 b 260 850 229 836 243 850 l 899 850 b 929 819 915 850 929 836 l 929 386 l 822 386 l 822 556 b 642 736 822 656 742 736 z m 489 386 b 458 417 472 386 458 400 l 458 583 b 489 614 458 600 472 614 l 669 614 b 700 583 686 614 700 600 l 700 386 z "},"ã":{"ha":1007,"x_min":0,"x_max":0,"o":"m 711 806 l 72 806 l 72 656 l 711 656 b 742 625 728 656 742 642 l 742 478 l 72 478 l 72 181 b 253 0 72 81 153 0 l 892 0 l 892 625 b 711 806 892 725 811 806 z m 742 150 l 253 150 b 222 181 236 150 222 164 l 222 328 l 742 328 z m 639 1093 b 361 1188 536 1104 464 1188 b 258 1168 319 1188 285 1179 l 258 1064 b 361 1096 276 1093 331 1096 b 639 1001 467 1096 540 1001 b 747 1026 682 1001 718 1014 l 747 1129 b 639 1093 714 1107 679 1093 z "},"b":{"ha":926,"x_min":0,"x_max":0,"o":"m 714 806 l 225 806 l 225 1069 l 75 1069 l 75 0 l 714 0 b 894 181 814 0 894 81 l 894 625 b 714 806 894 725 814 806 z m 744 181 b 714 150 744 164 731 150 l 256 150 b 225 181 239 150 225 164 l 225 625 b 256 656 225 642 239 656 l 714 656 b 744 625 731 656 744 642 z "},"\\":{"ha":722,"x_min":0,"x_max":0,"o":"m 7 1000 l 7 822 l 694 0 l 715 0 l 715 178 l 28 1000 z "},"|":{"ha":297,"x_min":0,"x_max":0,"o":"m 75 -151 l 225 -151 l 225 1150 l 75 1150 z "},"{":{"ha":401,"x_min":0,"x_max":0,"o":"m 243 428 l 146 508 l 243 585 l 243 819 b 274 850 243 836 257 850 l 332 850 l 332 1000 l 274 1000 b 93 819 174 1000 93 919 l 93 618 l 32 583 l 32 433 l 93 397 l 93 181 b 274 0 93 81 174 0 l 332 0 l 332 150 l 274 150 b 243 181 257 150 243 164 z "},"}":{"ha":401,"x_min":0,"x_max":0,"o":"m 160 181 b 129 150 160 164 146 150 l 71 150 l 71 0 l 129 0 b 310 181 229 0 310 81 l 310 397 l 371 433 l 371 583 l 310 618 l 310 819 b 129 1000 310 919 229 1000 l 71 1000 l 71 850 l 129 850 b 160 819 146 850 160 836 l 160 585 l 257 508 l 160 428 z "},"[":{"ha":382,"x_min":0,"x_max":0,"o":"m 75 0 l 314 0 l 314 150 l 225 150 l 225 850 l 314 850 l 314 1000 l 75 1000 z "},"]":{"ha":383,"x_min":0,"x_max":0,"o":"m 71 850 l 160 850 l 160 150 l 71 150 l 71 0 l 310 0 l 310 1000 l 71 1000 z "},"˘":{"ha":399,"x_min":0,"x_max":0,"o":"m 271 1265 l 271 1240 b 251 1221 271 1229 263 1221 l 146 1221 b 126 1240 135 1221 126 1229 l 126 1265 l 56 1265 l 56 1256 b 163 1149 56 1197 101 1149 l 235 1149 b 342 1256 296 1149 342 1197 l 342 1265 z "},"•":{"ha":515,"x_min":0,"x_max":0,"o":"m 240 572 b 182 514 203 572 182 551 l 182 486 b 240 428 182 449 203 428 l 272 428 b 332 486 311 428 332 449 l 332 514 b 272 572 332 551 311 572 z "},"c":{"ha":965,"x_min":0,"x_max":0,"o":"m 251 150 b 221 181 235 150 221 164 l 221 625 b 251 656 221 642 235 656 l 888 656 l 888 806 l 251 806 b 71 625 151 806 71 725 l 71 181 b 251 0 71 81 151 0 l 890 0 l 890 150 z "},"ˇ":{"ha":413,"x_min":0,"x_max":0,"o":"m 38 1343 l 156 1147 l 258 1147 l 376 1343 l 272 1343 l 207 1238 l 140 1343 z "},"ç":{"ha":963,"x_min":0,"x_max":0,"o":"m 251 150 b 221 181 235 150 221 164 l 221 625 b 251 656 221 642 235 656 l 888 656 l 888 806 l 251 806 b 71 625 151 806 71 725 l 71 181 b 251 0 71 81 151 0 l 890 0 l 890 150 z m 378 -225 l 528 -225 l 583 0 l 433 0 z "},"¸":{"ha":296,"x_min":0,"x_max":0,"o":"m 46 -225 l 196 -225 l 251 0 l 101 0 z "},"¢":{"ha":883,"x_min":0,"x_max":0,"o":"m 863 669 l 863 819 l 531 819 l 531 997 l 381 997 l 381 819 l 226 819 b 46 639 126 819 46 739 l 46 181 b 226 0 46 81 126 0 l 381 0 l 381 -151 l 531 -151 l 531 0 l 863 0 l 863 150 l 531 150 l 531 669 z m 381 150 l 226 150 b 196 181 210 150 196 164 l 196 639 b 226 669 196 656 210 669 l 381 669 z "},"ˆ":{"ha":417,"x_min":0,"x_max":0,"o":"m 142 1147 l 208 1253 l 274 1147 l 378 1147 l 260 1343 l 157 1343 l 39 1147 z "},":":{"ha":297,"x_min":0,"x_max":0,"o":"m 75 150 l 75 0 l 225 0 l 225 150 z m 225 817 l 75 817 l 75 667 l 225 667 z "},",":{"ha":268,"x_min":0,"x_max":0,"o":"m 75 150 l 75 -178 b 225 0 160 -164 225 -90 l 225 150 z "},"d":{"ha":926,"x_min":0,"x_max":0,"o":"m 701 1069 l 701 806 l 213 806 b 32 625 113 806 32 725 l 32 181 b 213 0 32 81 113 0 l 851 0 l 851 1069 z m 213 150 b 182 181 196 150 182 164 l 182 625 b 213 656 182 642 196 656 l 671 656 b 701 625 688 656 701 642 l 701 181 b 671 150 701 164 688 150 z "},"°":{"ha":610,"x_min":0,"x_max":0,"o":"m 243 1000 b 63 819 143 1000 63 919 l 63 708 b 243 528 63 608 143 528 l 368 528 b 549 708 468 528 549 608 l 549 819 b 368 1000 549 919 468 1000 z m 215 650 b 185 681 199 650 185 664 l 185 847 b 215 878 185 864 199 878 l 396 878 b 426 847 413 878 426 864 l 426 681 b 396 650 426 664 413 650 z "},"¨":{"ha":535,"x_min":0,"x_max":0,"o":"m 461 1299 l 311 1299 l 311 1149 l 461 1149 z m 225 1299 l 75 1299 l 75 1149 l 225 1149 z "},"÷":{"ha":697,"x_min":0,"x_max":0,"o":"m 692 486 l 25 486 l 25 336 l 692 336 z m 279 150 l 279 0 l 429 0 l 429 150 z m 429 817 l 279 817 l 279 667 l 429 667 z "},"$":{"ha":1094,"x_min":0,"x_max":0,"o":"m 1047 819 b 867 1000 1047 919 967 1000 l 622 1000 l 622 1150 l 472 1150 l 472 1000 l 228 1000 b 47 819 128 1000 47 919 l 47 606 b 228 425 47 506 128 425 l 472 425 l 472 150 l 228 150 b 197 181 211 150 197 164 l 197 239 l 47 239 l 47 181 b 228 0 47 81 128 0 l 472 0 l 472 -150 l 622 -150 l 622 0 l 867 0 b 1047 181 967 0 1047 81 l 1047 394 b 867 575 1047 494 967 575 l 622 575 l 622 850 l 867 850 b 897 819 883 850 897 836 l 897 761 l 1047 761 z m 867 425 b 897 394 883 425 897 411 l 897 181 b 867 150 897 164 883 150 l 622 150 l 622 425 z m 363 575 l 228 575 b 197 606 211 575 197 589 l 197 819 b 228 850 197 836 211 850 l 472 850 l 472 575 z "},"˙":{"ha":324,"x_min":0,"x_max":0,"o":"m 138 1344 b 63 1271 96 1344 63 1311 l 63 1224 b 138 1150 63 1183 96 1150 l 188 1150 b 263 1224 229 1150 263 1183 l 263 1271 b 188 1344 263 1311 229 1344 z "},"ı":{"ha":297,"x_min":0,"x_max":0,"o":"m 72 0 l 222 0 l 222 806 l 72 806 z "},"e":{"ha":961,"x_min":0,"x_max":0,"o":"m 710 806 l 251 806 b 71 625 151 806 71 725 l 71 181 b 251 0 71 81 151 0 l 890 0 l 890 150 l 251 150 b 221 181 235 150 221 164 l 221 328 l 890 328 l 890 625 b 710 806 890 725 810 806 z m 221 478 l 221 625 b 251 656 221 642 235 656 l 710 656 b 740 625 726 656 740 642 l 740 478 z "},"é":{"ha":886,"x_min":0,"x_max":0,"o":"m 710 806 l 251 806 b 71 625 151 806 71 725 l 71 181 b 251 0 71 81 151 0 l 890 0 l 890 150 l 251 150 b 221 181 235 150 221 164 l 221 328 l 890 328 l 890 625 b 710 806 890 725 810 806 z m 221 478 l 221 625 b 251 656 221 642 235 656 l 710 656 b 740 625 726 656 740 642 l 740 478 z m 340 999 l 490 999 l 546 1224 l 396 1224 z "},"ê":{"ha":886,"x_min":0,"x_max":0,"o":"m 710 806 l 251 806 b 71 625 151 806 71 725 l 71 181 b 251 0 71 81 151 0 l 890 0 l 890 150 l 251 150 b 221 181 235 150 221 164 l 221 328 l 890 328 l 890 625 b 710 806 890 725 810 806 z m 221 478 l 221 625 b 251 656 221 642 235 656 l 710 656 b 740 625 726 656 740 642 l 740 478 z m 376 997 l 443 1103 l 508 997 l 613 997 l 494 1193 l 392 1193 l 274 997 z "},"ë":{"ha":886,"x_min":0,"x_max":0,"o":"m 710 806 l 251 806 b 71 625 151 806 71 725 l 71 181 b 251 0 71 81 151 0 l 890 0 l 890 150 l 251 150 b 221 181 235 150 221 164 l 221 328 l 890 328 l 890 625 b 710 806 890 725 810 806 z m 221 478 l 221 625 b 251 656 221 642 235 656 l 710 656 b 740 625 726 656 740 642 l 740 478 z m 636 1147 l 486 1147 l 486 997 l 636 997 z m 400 1147 l 250 1147 l 250 997 l 400 997 z "},"è":{"ha":886,"x_min":0,"x_max":0,"o":"m 710 806 l 251 806 b 71 625 151 806 71 725 l 71 181 b 251 0 71 81 151 0 l 890 0 l 890 150 l 251 150 b 221 181 235 150 221 164 l 221 328 l 890 328 l 890 625 b 710 806 890 725 810 806 z m 221 478 l 221 625 b 251 656 221 642 235 656 l 710 656 b 740 625 726 656 740 642 l 740 478 z m 490 1222 l 340 1222 l 396 997 l 546 997 z "},"…":{"ha":797,"x_min":0,"x_max":0,"o":"m 225 150 l 75 150 l 75 0 l 225 0 z m 722 150 l 572 150 l 572 0 l 722 0 z m 474 150 l 324 150 l 324 0 l 474 0 z "},"—":{"ha":1142,"x_min":0,"x_max":0,"o":"m 1067 485 l 75 485 l 75 335 l 1067 335 z "},"–":{"ha":983,"x_min":0,"x_max":0,"o":"m 908 485 l 75 485 l 75 335 l 908 335 z "},"=":{"ha":886,"x_min":0,"x_max":0,"o":"m 804 349 l 82 349 l 82 199 l 804 199 z m 804 613 l 82 613 l 82 463 l 804 463 z "},"!":{"ha":306,"x_min":0,"x_max":0,"o":"m 231 0 l 231 150 l 81 150 l 81 0 z m 81 278 l 231 278 l 231 1000 l 81 1000 z "},"¡":{"ha":292,"x_min":0,"x_max":0,"o":"m 224 1000 l 74 1000 l 74 850 l 224 850 z m 224 0 l 224 722 l 74 722 l 74 0 z "},"f":{"ha":565,"x_min":0,"x_max":0,"o":"m 254 919 l 554 919 l 554 1069 l 254 1069 b 74 889 154 1069 74 989 l 74 444 b 74 444 74 444 74 444 l 74 0 l 224 0 l 224 656 l 554 656 l 554 806 l 224 806 l 224 889 b 254 919 224 906 238 919 z "},"":{"ha":1004,"x_min":0,"x_max":0,"o":"m 824 404 l 824 611 l 674 611 l 674 404 l 194 404 l 671 931 l 671 1000 l 521 1000 l 13 404 l 13 254 l 674 254 l 674 0 l 824 0 l 824 254 l 971 254 l 971 404 z "},"g":{"ha":949,"x_min":0,"x_max":0,"o":"m 876 307 l 876 625 b 696 806 876 725 796 806 l 238 806 b 57 625 138 806 57 725 l 57 181 b 238 0 57 81 138 0 l 726 0 l 726 -139 b 696 -169 726 -156 713 -169 l 199 -169 l 199 -319 l 696 -319 b 876 -139 796 -319 876 -239 l 876 306 b 876 307 876 306 876 307 z m 238 150 b 207 181 221 150 207 164 l 207 625 b 238 656 207 642 221 656 l 696 656 b 726 625 713 656 726 642 l 726 181 b 696 150 726 164 713 150 z "},"ß":{"ha":1157,"x_min":0,"x_max":0,"o":"m 1079 850 b 899 1000 1064 935 988 1000 l 260 1000 b 79 819 160 1000 79 919 l 79 0 l 229 0 l 229 818 b 260 849 229 835 243 849 l 899 849 b 929 818 915 849 929 835 l 929 604 b 899 574 929 588 915 574 l 379 574 l 379 439 l 899 439 b 929 408 915 439 929 425 l 929 181 b 899 150 929 164 915 150 l 379 150 l 379 0 l 899 0 b 1079 181 999 0 1079 81 l 1079 408 b 1044 514 1079 447 1067 485 b 1079 619 1067 543 1079 581 z "},"`":{"ha":296,"x_min":0,"x_max":0,"o":"m 194 1374 l 44 1374 l 100 1149 l 250 1149 z "},">":{"ha":660,"x_min":0,"x_max":0,"o":"m 82 3 l 653 333 l 653 483 l 82 813 l 82 639 l 483 408 l 82 176 z "},"h":{"ha":928,"x_min":0,"x_max":0,"o":"m 714 806 l 225 806 l 225 1069 l 75 1069 l 75 0 l 225 0 l 225 625 b 256 656 225 642 239 656 l 714 656 b 744 625 731 656 744 642 l 744 0 l 894 0 l 894 625 b 714 806 894 725 813 806 z "},"-":{"ha":718,"x_min":0,"x_max":0,"o":"m 638 486 l 82 486 l 82 336 l 638 336 z "},"i":{"ha":289,"x_min":0,"x_max":0,"o":"m 72 0 l 222 0 l 222 806 l 72 806 z m 72 1069 l 72 919 l 222 919 l 222 1069 z "},"í":{"ha":297,"x_min":0,"x_max":0,"o":"m 71 0 l 221 0 l 221 806 l 71 806 z m 68 997 l 218 997 l 274 1222 l 124 1222 z "},"î":{"ha":297,"x_min":0,"x_max":0,"o":"m 71 0 l 221 0 l 221 806 l 71 806 z m 82 997 l 149 1103 l 214 997 l 318 997 l 200 1193 l 97 1193 l -21 997 z "},"ï":{"ha":297,"x_min":0,"x_max":0,"o":"m 76 0 l 226 0 l 226 806 l 76 806 z m 342 1150 l 192 1150 l 192 1000 l 342 1000 z m 106 1150 l -44 1150 l -44 1000 l 106 1000 z "},"ì":{"ha":297,"x_min":0,"x_max":0,"o":"m 78 0 l 228 0 l 228 806 l 78 806 z m 172 1224 l 22 1224 l 78 999 l 228 999 z "},"j":{"ha":332,"x_min":0,"x_max":0,"o":"m 115 1069 l 115 919 l 265 919 l 265 1069 z m 265 803 l 115 803 l 115 -139 b 85 -169 115 -156 101 -169 l -260 -169 l -260 -319 l 85 -319 b 265 -139 185 -319 265 -239 l 265 306 b 265 306 265 306 265 306 z "},"k":{"ha":897,"x_min":0,"x_max":0,"o":"m 707 806 l 406 478 l 225 478 l 225 1069 l 75 1069 l 75 0 l 225 0 l 225 328 l 406 328 l 707 0 l 885 0 l 885 21 l 539 403 l 885 785 l 885 806 z "},"l":{"ha":419,"x_min":0,"x_max":0,"o":"m 72 625 b 72 625 72 625 72 625 l 72 181 b 253 0 72 81 153 0 l 403 0 l 403 150 l 253 150 b 222 181 236 150 222 164 l 222 1069 l 72 1069 l 72 625 z "},"<":{"ha":657,"x_min":0,"x_max":0,"o":"m 176 411 l 578 642 l 578 815 l 7 486 l 7 336 l 578 6 l 578 179 z "},"m":{"ha":1358,"x_min":0,"x_max":0,"o":"m 1104 806 l 75 806 l 75 0 l 225 0 l 225 625 b 256 656 225 642 239 656 l 575 656 b 606 625 592 656 606 642 l 606 0 l 756 0 l 756 625 b 786 656 756 642 769 656 l 1104 656 b 1136 625 1122 656 1136 642 l 1136 0 l 1285 0 l 1285 625 b 1104 806 1285 725 1204 806 z "},"−":{"ha":718,"x_min":0,"x_max":0,"o":"m 638 486 l 82 486 l 82 336 l 638 336 z "},"×":{"ha":758,"x_min":0,"x_max":0,"o":"m 685 708 l 507 708 l 379 533 l 251 708 l 74 708 l 74 688 l 281 417 l 74 146 l 74 125 l 251 125 l 379 300 l 507 125 l 685 125 l 685 146 l 476 417 l 685 688 z "},"n":{"ha":967,"x_min":0,"x_max":0,"o":"m 714 806 l 75 806 l 75 0 l 225 0 l 225 625 b 256 656 225 642 239 656 l 714 656 b 744 625 731 656 744 642 l 744 0 l 894 0 l 894 625 b 714 806 894 725 814 806 z "},"":{"ha":1089,"x_min":0,"x_max":0,"o":"m 197 997 b 17 817 97 997 17 917 l 17 589 b 197 408 17 489 97 408 l 836 408 b 867 378 853 408 867 394 l 867 0 b 1017 0 944 0 969 0 l 1017 817 b 836 997 1017 917 936 997 z m 607 558 l 197 558 b 167 589 181 558 167 572 l 167 817 b 197 847 167 833 181 847 l 836 847 b 867 817 853 847 867 833 l 867 558 z "},"ñ":{"ha":983,"x_min":0,"x_max":0,"o":"m 714 806 l 75 806 l 75 0 l 225 0 l 225 625 b 256 656 225 642 239 656 l 714 656 b 744 625 731 656 744 642 l 744 0 l 894 0 l 894 625 b 714 806 894 725 814 806 z m 628 1092 b 350 1186 525 1103 453 1186 b 247 1167 308 1186 274 1178 l 247 1063 b 350 1094 265 1092 319 1094 b 628 1000 456 1094 529 1000 b 736 1025 671 1000 707 1013 l 736 1128 b 628 1092 703 1106 668 1092 z "},"#":{"ha":1107,"x_min":0,"x_max":0,"o":"m 1063 775 l 944 775 l 1019 996 l 869 996 l 794 775 l 496 775 l 571 996 l 421 996 l 346 775 l 88 775 l 88 625 l 299 625 l 218 378 l 44 378 l 44 228 l 171 228 l 101 0 l 251 0 l 321 228 l 619 228 l 550 0 l 700 0 l 769 228 l 1019 228 l 1019 378 l 817 378 l 897 625 l 1063 625 z m 368 378 l 449 625 l 747 625 l 667 378 z "},"o":{"ha":961,"x_min":0,"x_max":0,"o":"m 251 806 b 71 625 151 806 71 725 l 71 181 b 251 0 71 81 151 0 l 710 0 b 890 181 810 0 890 81 l 890 625 b 710 806 890 725 810 806 z m 710 656 b 740 625 726 656 740 642 l 740 181 b 710 150 740 164 726 150 l 251 150 b 221 181 235 150 221 164 l 221 625 b 251 656 221 642 235 656 z "},"ó":{"ha":961,"x_min":0,"x_max":0,"o":"m 251 806 b 71 625 151 806 71 725 l 71 181 b 251 0 71 81 151 0 l 710 0 b 890 181 810 0 890 81 l 890 625 b 710 806 890 725 810 806 z m 710 656 b 740 625 726 656 740 642 l 740 181 b 710 150 740 164 726 150 l 251 150 b 221 181 235 150 221 164 l 221 625 b 251 656 221 642 235 656 z m 378 999 l 528 999 l 583 1224 l 433 1224 z "},"ô":{"ha":961,"x_min":0,"x_max":0,"o":"m 251 806 b 71 625 151 806 71 725 l 71 181 b 251 0 71 81 151 0 l 710 0 b 890 181 810 0 890 81 l 890 625 b 710 806 890 725 810 806 z m 710 656 b 740 625 726 656 740 642 l 740 181 b 710 150 740 164 726 150 l 251 150 b 221 181 235 150 221 164 l 221 625 b 251 656 221 642 235 656 z m 414 997 l 481 1103 l 546 997 l 650 997 l 532 1193 l 429 1193 l 311 997 z "},"ö":{"ha":961,"x_min":0,"x_max":0,"o":"m 251 806 b 71 625 151 806 71 725 l 71 181 b 251 0 71 81 151 0 l 710 0 b 890 181 810 0 890 81 l 890 625 b 710 806 890 725 810 806 z m 710 656 b 740 625 726 656 740 642 l 740 181 b 710 150 740 164 726 150 l 251 150 b 221 181 235 150 221 164 l 221 625 b 251 656 221 642 235 656 z m 674 1150 l 524 1150 l 524 1000 l 674 1000 z m 438 1150 l 288 1150 l 288 1000 l 438 1000 z "},"œ":{"ha":1635,"x_min":0,"x_max":0,"o":"m 1561 328 l 1561 625 b 1381 806 1561 725 1481 806 l 253 806 b 72 625 153 806 72 725 l 72 181 b 253 0 72 81 153 0 l 1561 0 l 1561 150 l 922 150 b 892 181 906 150 892 164 l 892 328 z m 922 656 l 1381 656 b 1411 625 1397 656 1411 642 l 1411 478 l 892 478 l 892 625 b 922 656 892 642 906 656 z m 711 150 l 253 150 b 222 181 236 150 222 164 l 222 625 b 253 656 222 642 236 656 l 711 656 b 742 625 728 656 742 642 l 742 181 b 711 150 742 164 728 150 z "},"ò":{"ha":961,"x_min":0,"x_max":0,"o":"m 251 806 b 71 625 151 806 71 725 l 71 181 b 251 0 71 81 151 0 l 710 0 b 890 181 810 0 890 81 l 890 625 b 710 806 890 725 810 806 z m 710 656 b 740 625 726 656 740 642 l 740 181 b 710 150 740 164 726 150 l 251 150 b 221 181 235 150 221 164 l 221 625 b 251 656 221 642 235 656 z m 528 1224 l 378 1224 l 433 999 l 583 999 z "},"õ":{"ha":961,"x_min":0,"x_max":0,"o":"m 251 806 b 71 625 151 806 71 725 l 71 181 b 251 0 71 81 151 0 l 710 0 b 890 181 810 0 890 81 l 890 625 b 710 806 890 725 810 806 z m 710 656 b 740 625 726 656 740 642 l 740 181 b 710 150 740 164 726 150 l 251 150 b 221 181 235 150 221 164 l 221 625 b 251 656 221 642 235 656 z m 617 1092 b 339 1186 514 1103 442 1186 b 236 1167 297 1186 263 1178 l 236 1063 b 339 1094 254 1092 308 1094 b 617 1000 444 1094 518 1000 b 725 1025 660 1000 696 1013 l 725 1128 b 617 1092 692 1106 657 1092 z "},"p":{"ha":922,"x_min":0,"x_max":0,"o":"m 714 806 l 75 806 l 75 -319 l 225 -319 l 225 0 l 714 0 b 894 181 814 0 894 81 l 894 625 b 714 806 894 725 814 806 z m 744 181 b 714 150 744 164 731 150 l 256 150 b 225 181 239 150 225 164 l 225 625 b 256 656 225 642 239 656 l 714 656 b 744 625 731 656 744 642 z "},"¶":{"ha":1157,"x_min":0,"x_max":0,"o":"m 78 818 l 78 538 b 258 357 78 439 158 357 l 638 357 l 638 0 l 788 0 l 788 357 l 928 357 l 928 0 l 1078 0 l 1078 999 l 258 999 b 78 818 158 999 78 917 z m 788 849 l 928 849 l 928 507 l 788 507 z m 228 818 b 258 849 228 835 242 849 l 638 849 l 638 507 l 258 507 b 228 538 242 507 228 521 z "},"(":{"ha":385,"x_min":0,"x_max":0,"o":"m 253 150 b 222 181 236 150 222 164 l 222 819 b 253 850 222 836 236 850 l 311 850 l 311 1000 l 253 1000 b 72 819 153 1000 72 919 l 72 181 b 253 0 72 81 153 0 l 311 0 l 311 150 z "},")":{"ha":386,"x_min":0,"x_max":0,"o":"m 78 0 l 136 0 b 317 181 235 0 317 81 l 317 819 b 136 1000 317 919 235 1000 l 78 1000 l 78 850 l 136 850 b 167 819 153 850 167 836 l 167 181 b 136 150 167 164 153 150 l 78 150 z "},"%":{"ha":1342,"x_min":0,"x_max":0,"o":"m 1163 1000 l 183 178 l 183 0 l 204 0 l 1183 822 l 1183 1000 z m 247 1000 b 67 819 147 1000 67 919 l 67 708 b 247 528 67 608 147 528 l 372 528 b 553 708 472 528 553 608 l 553 819 b 372 1000 553 919 472 1000 z m 219 650 b 189 681 203 650 189 664 l 189 847 b 219 878 189 864 203 878 l 400 878 b 431 847 417 878 431 864 l 431 681 b 400 650 431 664 417 650 z m 967 471 b 786 290 867 471 786 390 l 786 179 b 967 -1 786 79 867 -1 l 1092 -1 b 1272 179 1192 -1 1272 79 l 1272 290 b 1092 471 1272 390 1192 471 z m 939 121 b 908 151 922 121 908 135 l 908 318 b 939 349 908 335 922 349 l 1119 349 b 1150 318 1136 349 1150 335 l 1150 151 b 1119 121 1150 135 1136 121 z "},".":{"ha":297,"x_min":0,"x_max":0,"o":"m 225 150 l 75 150 l 75 0 l 225 0 z "},"+":{"ha":601,"x_min":0,"x_max":0,"o":"m 224 688 l 224 486 l 24 486 l 24 336 l 224 336 l 224 132 l 374 132 l 374 336 l 579 336 l 579 486 l 374 486 l 374 688 z "},"q":{"ha":922,"x_min":0,"x_max":0,"o":"m 28 625 l 28 181 b 208 0 28 81 108 0 l 697 0 l 697 -319 l 847 -319 l 847 806 l 208 806 b 28 625 108 806 28 725 z m 178 625 b 208 656 178 642 192 656 l 667 656 b 697 625 683 656 697 642 l 697 181 b 667 150 697 164 683 150 l 208 150 b 178 181 192 150 178 164 z "},"?":{"ha":942,"x_min":0,"x_max":0,"o":"m 43 1000 b 43 850 43 1000 43 935 l 733 850 b 764 819 750 850 764 836 l 764 564 b 733 533 764 547 750 533 l 374 533 b 193 353 274 533 193 453 l 193 276 l 343 276 l 343 353 b 374 383 343 369 357 383 l 733 383 b 914 564 833 383 914 464 l 914 819 b 733 1000 914 919 833 1000 z m 343 0 l 343 150 l 193 150 l 193 0 z "},"":{"ha":926,"x_min":0,"x_max":0,"o":"m 604 533 l 594 533 z m 215 1000 b 38 850 126 1000 51 935 l 38 700 l 188 700 l 188 850 l 715 850 b 746 819 732 850 746 836 l 746 564 b 715 533 746 547 732 533 l 451 533 b 271 353 351 533 271 453 l 271 210 l 421 210 l 421 353 b 451 383 421 369 435 383 l 715 383 b 896 564 815 383 896 464 l 896 819 b 715 1000 896 919 815 1000 z m 421 0 l 421 150 l 271 150 l 271 0 z "},"¿":{"ha":938,"x_min":0,"x_max":0,"o":"m 897 0 b 897 150 897 0 897 63 l 207 150 b 176 181 190 150 176 164 l 176 436 b 207 467 176 453 190 467 l 567 467 b 747 647 667 467 747 547 l 747 732 l 597 732 l 597 647 b 567 617 597 631 583 617 l 207 617 b 26 436 107 617 26 536 l 26 181 b 207 0 26 81 107 0 z m 747 1000 l 597 1000 l 597 850 l 747 850 z "},"\"":{"ha":517,"x_min":0,"x_max":0,"o":"m 232 999 l 82 999 l 82 774 l 232 774 z m 436 999 l 286 999 l 286 774 l 436 774 z "},"“":{"ha":525,"x_min":0,"x_max":0,"o":"m 214 672 l 214 1000 b 64 822 129 986 64 913 l 64 672 z m 451 672 l 451 1000 b 301 822 367 986 301 913 l 301 672 z "},"”":{"ha":525,"x_min":0,"x_max":0,"o":"m 313 1000 l 313 672 b 463 850 397 686 463 760 l 463 1000 z m 75 1000 l 75 672 b 225 850 160 686 225 760 l 225 1000 z "},"‘":{"ha":269,"x_min":0,"x_max":0,"o":"m 197 672 l 197 1000 b 47 822 113 986 47 913 l 47 672 z "},"’":{"ha":268,"x_min":0,"x_max":0,"o":"m 75 1000 l 75 672 b 225 850 160 686 225 760 l 225 1000 z "},"'":{"ha":311,"x_min":0,"x_max":0,"o":"m 232 999 l 82 999 l 82 774 l 232 774 z "},"r":{"ha":711,"x_min":0,"x_max":0,"o":"m 253 806 b 72 625 153 806 72 725 l 72 181 b 72 181 72 181 72 181 l 72 0 l 222 0 l 222 625 b 253 656 222 642 236 656 l 703 656 l 703 806 z "},"˚":{"ha":324,"x_min":0,"x_max":0,"o":"m 124 1372 b 49 1299 82 1372 49 1339 l 49 1224 b 124 1150 49 1183 82 1150 l 201 1150 b 276 1224 243 1150 276 1183 l 276 1299 b 201 1372 276 1339 243 1372 z m 117 1206 b 104 1219 110 1206 104 1211 l 104 1303 b 117 1317 104 1311 110 1317 l 208 1317 b 221 1303 215 1317 221 1311 l 221 1219 b 208 1206 221 1211 215 1206 z "},"s":{"ha":953,"x_min":0,"x_max":0,"o":"m 886 625 b 706 806 886 725 806 806 l 247 806 b 67 625 147 806 67 725 l 67 508 b 247 328 67 408 147 328 l 706 328 b 736 297 722 328 736 314 l 736 181 b 706 150 736 164 722 150 l 247 150 b 217 181 231 150 217 164 l 217 211 l 67 211 l 67 181 b 247 0 67 81 147 0 l 706 0 b 886 181 806 0 886 81 l 886 297 b 706 478 886 397 806 478 l 247 478 b 217 508 231 478 217 492 l 217 625 b 247 656 217 642 231 656 l 706 656 b 736 625 722 656 736 642 l 736 594 l 886 594 z "},"š":{"ha":954,"x_min":0,"x_max":0,"o":"m 886 625 b 706 806 886 725 806 806 l 247 806 b 67 625 147 806 67 725 l 67 508 b 247 328 67 408 147 328 l 706 328 b 736 297 722 328 736 314 l 736 181 b 706 150 736 164 722 150 l 247 150 b 217 181 231 150 217 164 l 217 211 l 67 211 l 67 181 b 247 0 67 81 147 0 l 706 0 b 886 181 806 0 886 81 l 886 297 b 706 478 886 397 806 478 l 247 478 b 217 508 231 478 217 492 l 217 625 b 247 656 217 642 231 656 l 706 656 b 736 625 722 656 736 642 l 736 594 l 886 594 z m 307 1193 l 425 997 l 528 997 l 646 1193 l 542 1193 l 476 1088 l 410 1193 z "},";":{"ha":268,"x_min":0,"x_max":0,"o":"m 221 817 l 71 817 l 71 667 l 221 667 z m 71 150 l 71 -178 b 221 0 156 -164 221 -90 l 221 150 z "},"":{"ha":1071,"x_min":0,"x_max":0,"o":"m 64 1000 l 64 850 l 760 850 l 64 21 l 64 0 l 242 0 l 1064 979 l 1064 1000 l 886 1000 z "},"/":{"ha":724,"x_min":0,"x_max":0,"o":"m 8 178 l 8 0 l 29 0 l 717 822 l 717 1000 l 696 1000 z "},"":{"ha":1075,"x_min":0,"x_max":0,"o":"m 75 1000 l 75 0 l 225 0 l 225 267 l 672 267 l 897 0 l 1075 0 l 1075 21 l 253 1000 z m 225 800 l 547 417 l 225 417 z "},"£":{"ha":1019,"x_min":0,"x_max":0,"o":"m 954 778 l 954 819 b 774 1000 954 919 874 1000 l 374 1000 b 193 819 274 1000 193 919 l 193 575 l 54 575 l 54 425 l 193 425 l 193 150 l 54 150 l 54 0 l 954 0 l 954 150 l 343 150 l 343 425 l 807 425 l 807 575 l 343 575 l 343 819 b 374 850 343 836 357 850 l 774 850 b 804 819 790 850 804 836 l 804 778 z "},"t":{"ha":569,"x_min":0,"x_max":0,"o":"m 554 656 l 554 806 l 224 806 l 224 1069 l 74 1069 l 74 625 b 74 625 74 625 74 625 l 74 181 b 254 0 74 81 154 0 l 554 0 l 554 150 l 254 150 b 224 181 238 150 224 164 l 224 656 z "},"˜":{"ha":560,"x_min":0,"x_max":0,"o":"m 413 1246 b 135 1340 310 1257 238 1340 b 32 1321 93 1340 58 1332 l 32 1217 b 135 1249 50 1246 104 1249 b 413 1154 240 1249 314 1154 b 521 1179 456 1154 492 1167 l 521 1282 b 413 1246 488 1260 453 1246 z "},"":{"ha":1132,"x_min":0,"x_max":0,"o":"m 1065 660 l 1065 850 b 888 1000 1050 935 976 1000 l 249 1000 b 68 819 149 1000 68 919 l 68 743 l 218 743 l 218 819 b 249 850 218 836 232 850 l 915 850 l 915 751 l 68 311 l 69 142 b 246 0 88 61 160 0 l 1065 0 l 1065 150 l 218 150 l 218 219 l 915 582 z "},"u":{"ha":965,"x_min":0,"x_max":0,"o":"m 743 806 l 743 181 b 713 150 743 164 729 150 l 254 150 b 224 181 238 150 224 164 l 224 806 l 74 806 l 74 181 b 254 0 74 81 154 0 l 713 0 b 893 181 813 0 893 81 l 893 806 z "},"ú":{"ha":965,"x_min":0,"x_max":0,"o":"m 743 806 l 743 181 b 713 150 743 164 729 150 l 254 150 b 224 181 238 150 224 164 l 224 806 l 74 806 l 74 181 b 254 0 74 81 154 0 l 713 0 b 893 181 813 0 893 81 l 893 806 z m 379 999 l 529 999 l 585 1224 l 435 1224 z "},"û":{"ha":965,"x_min":0,"x_max":0,"o":"m 743 806 l 743 181 b 713 150 743 164 729 150 l 254 150 b 224 181 238 150 224 164 l 224 806 l 74 806 l 74 181 b 254 0 74 81 154 0 l 713 0 b 893 181 813 0 893 81 l 893 806 z m 415 999 l 482 1104 l 547 999 l 651 999 l 533 1194 l 431 1194 l 313 999 z "},"ü":{"ha":965,"x_min":0,"x_max":0,"o":"m 743 806 l 743 181 b 713 150 743 164 729 150 l 254 150 b 224 181 238 150 224 164 l 224 806 l 74 806 l 74 181 b 254 0 74 81 154 0 l 713 0 b 893 181 813 0 893 81 l 893 806 z m 675 1147 l 525 1147 l 525 997 l 675 997 z m 439 1147 l 289 1147 l 289 997 l 439 997 z "},"ù":{"ha":965,"x_min":0,"x_max":0,"o":"m 743 806 l 743 181 b 713 150 743 164 729 150 l 254 150 b 224 181 238 150 224 164 l 224 806 l 74 806 l 74 181 b 254 0 74 81 154 0 l 713 0 b 893 181 813 0 893 81 l 893 806 z m 529 1224 l 379 1224 l 435 999 l 585 999 z "},"_":{"ha":1150,"x_min":0,"x_max":0,"o":"m 1075 0 l 75 0 l 75 -150 l 1075 -150 z "},"":{"ha":0,"x_min":0,"x_max":0,"o":""},"v":{"ha":1097,"x_min":0,"x_max":0,"o":"m 896 806 l 549 169 l 203 806 l 29 806 l 474 0 l 624 0 l 1068 806 z "},"w":{"ha":1472,"x_min":0,"x_max":0,"o":"m 1279 806 l 1075 271 l 829 806 l 658 806 l 426 271 l 208 806 l 49 806 l 365 0 l 486 0 l 485 1 l 488 0 l 743 599 l 1014 0 l 1136 0 l 1439 806 z "},"x":{"ha":961,"x_min":0,"x_max":0,"o":"m 719 806 l 481 526 l 242 806 l 64 806 l 64 785 l 382 410 l 64 21 l 64 0 l 242 0 l 481 293 l 719 0 l 897 0 l 897 21 l 578 410 l 897 785 l 897 806 z "},"y":{"ha":951,"x_min":0,"x_max":0,"o":"m 878 308 l 878 803 l 728 803 l 728 181 b 697 150 728 164 714 150 l 239 150 b 208 181 222 150 208 164 l 208 803 l 58 803 l 58 181 b 239 0 58 81 139 0 l 728 0 l 728 -139 b 697 -169 728 -156 714 -169 l 200 -169 l 200 -319 l 697 -319 b 878 -139 797 -319 878 -239 l 878 306 b 878 308 878 306 878 307 z "},"ý":{"ha":956,"x_min":0,"x_max":0,"o":"m 878 308 l 878 803 l 728 803 l 728 181 b 697 150 728 164 714 150 l 239 150 b 208 181 222 150 208 164 l 208 803 l 58 803 l 58 181 b 239 0 58 81 139 0 l 728 0 l 728 -139 b 697 -169 728 -156 714 -169 l 200 -169 l 200 -319 l 697 -319 b 878 -139 797 -319 878 -239 l 878 306 b 878 308 878 306 878 307 z m 375 999 l 525 999 l 581 1224 l 431 1224 z "},"ÿ":{"ha":956,"x_min":0,"x_max":0,"o":"m 878 308 l 878 803 l 728 803 l 728 181 b 697 150 728 164 714 150 l 239 150 b 208 181 222 150 208 164 l 208 803 l 58 803 l 58 181 b 239 0 58 81 139 0 l 728 0 l 728 -139 b 697 -169 728 -156 714 -169 l 200 -169 l 200 -319 l 697 -319 b 878 -139 797 -319 878 -239 l 878 306 b 878 308 878 306 878 307 z m 671 1150 l 521 1150 l 521 1000 l 671 1000 z m 435 1150 l 285 1150 l 285 1000 l 435 1000 z "},"z":{"ha":969,"x_min":0,"x_max":0,"o":"m 75 656 l 694 656 l 75 178 l 75 0 l 894 0 l 894 150 l 275 150 l 894 628 l 894 806 l 75 806 z "},"ž":{"ha":969,"x_min":0,"x_max":0,"o":"m 75 656 l 694 656 l 75 178 l 75 0 l 894 0 l 894 150 l 275 150 l 894 628 l 894 806 l 75 806 z m 315 1197 l 433 1001 l 536 1001 l 654 1197 l 550 1197 l 485 1092 l 418 1197 z "},"A":{"ha":1161,"x_min":0,"x_max":0,"o":"m 261 1000 b 81 819 161 1000 81 919 l 81 0 l 231 0 l 231 350 l 931 350 l 931 0 l 1081 0 l 1081 819 b 900 1000 1081 919 1000 1000 z m 231 500 l 231 819 b 261 850 231 836 244 850 l 900 850 b 931 819 917 850 931 836 l 931 500 z "}}}
